<svg xmlns="http://www.w3.org/2000/svg" viewBox="0 0 48 48" width="48" height="48" fill="none">
  <rect width="48" height="48" rx="12" fill="#111827"/>
  <rect x="0.5" y="0.5" width="47" height="47" rx="11.5" stroke="#253247" stroke-width="1"/>
  
  <!-- DynamicFeed Background Card -->
  <path d="M14 14H10C8.9 14 8 14.9 8 16V26C8 27.1 8.9 28 10 28H14V25H11V17H14V14Z" fill="#3B82F6" fill-opacity="0.4"/>
  
  <!-- DynamicFeed Main Card -->
  <rect x="15" y="11" width="19" height="15" rx="3" fill="#3B82F6"/>
  <rect x="18" y="15" width="13" height="2.5" rx="1.25" fill="#FFFFFF"/>
  <rect x="18" y="19.5" width="8" height="2" rx="1" fill="#FFFFFF" fill-opacity="0.8"/>
  
  <!-- DynamicFeed Foreground Bottom Card -->
  <path d="M12 29C12 27.9 12.9 27 14 27H35C36.1 27 37 27.9 37 29V34C37 35.1 36.1 36 35 36H14C12.9 36 12 35.1 12 34V29Z" fill="#2563EB"/>
  <rect x="15" y="30.5" width="11" height="2" rx="1" fill="#FFFFFF" fill-opacity="0.9"/>
</svg>